<?xml version="1.0" encoding="utf-8"?>
<!DOCTYPE svg PUBLIC "-//W3C//DTD SVG 1.1//EN" "http://www.w3.org/Graphics/SVG/1.1/DTD/svg11.dtd">
<svg version="1.1" xmlns="http://www.w3.org/2000/svg" xmlns:xlink="http://www.w3.org/1999/xlink" x="0px" y="0px" viewBox="0 0 1000 1000" enable-background="new 0 0 1000 1000" xml:space="preserve">
<g><g transform="translate(0.000000,511.000000) scale(0.100000,-0.100000)"><path d="M4748.4,4997.2c-661.1-118.1-1173.5-668.2-1246.7-1338.8l-16.5-148.8h-644.6c-354.2,0-698.9-11.8-767.4-23.6c-304.6-59-573.8-259.7-708.4-533.6c-85-177.1-155.8-526.5-132.2-658.8c21.3-111,139.3-240.8,245.6-271.5c56.7-14.2,1263.2-23.6,3522.9-23.6c2259.7,0,3466.3,9.4,3522.9,23.6c106.3,30.7,224.3,160.6,243.2,269.2c21.3,113.3-30.7,425-101.5,602.1C8550,3186.2,8252.5,3427,7931.3,3486c-68.5,11.8-417.9,23.6-772.1,23.6h-644.6l-14.2,137c-80.3,748.5-672.9,1317.6-1416.7,1360.1C4965.7,5013.8,4816.9,5009,4748.4,4997.2z M5298.6,3991.3c132.2-80.3,243.2-243.2,262.1-384.9l14.2-96.8h-571.4h-569.1v59c0,160.6,139.3,358.9,311.7,448.6C4920.8,4104.7,5133.3,4095.2,5298.6,3991.3z"/><path d="M1605.7-1134.8l7.1-2757.9l54.3-139.3c134.6-356.5,377.8-592.7,736.7-713.1c122.8-42.5,252.7-44.9,2597.3-44.9s2474.6,2.4,2597.3,44.9c358.9,120.4,602.1,356.5,736.7,713.1l54.3,139.3l7.1,2757.9l4.7,2755.5H5001.1H1600.9L1605.7-1134.8z M3489.9-1458.3v-1943.3l-54.3-80.3c-82.6-122.8-193.6-186.5-323.5-186.5s-240.8,63.8-323.5,186.5l-54.3,80.3v1943.3V487.3h377.8h377.8V-1458.3z M5378.9-1458.3v-1943.3l-54.3-80.3c-82.6-122.8-193.6-186.5-323.5-186.5s-240.8,63.8-323.5,186.5l-54.3,80.3v1943.3V487.3h377.8h377.8V-1458.3z M7267.8-1458.3v-1943.3l-54.3-80.3c-82.6-122.8-193.6-186.5-323.5-186.5s-240.8,63.8-323.5,186.5l-54.3,80.3v1943.3V487.3H6890h377.8V-1458.3z"/></g></g>
</svg>